:SAMPLES-PER-SECOND 30
:FULLY-SPECIFIED
:DEGREES
125
root  15.8682 27.7124 0.867233 2.90524 -77.622 -12.6703
RightUpLeg  -25.4259 -7.15704 -35.2885
RightLeg  69.327 -4.54135 -13.8092
RightFoot  -7.50527 -1.27855 35.1488
RightToes  -5.28226e-011 1.30204e-014 -6.03759e-014
Spine  39.1541 3.64052 8.4236
Spine1  -3.653 6.50148 -1.25383
HEad  -33.2419 -15.4601 -1.64225
LeftShoulder1  1.67225 -2.69248 -20.2652
LeftArm  4.13792 -17.9223 -37.8393
LeftForeArm  -43.4293 -25.7031 -7.55789
LeftHand  0.825944 8.23384 31.898
RightShoulder  2.29225 3.57944 26.3312
RightArm  -26.8232 -44.1419 25.3184
RightForeArm  -43.5587 29.9324 8.37218
RightHand  -0.8635 -0.789827 -21.654
LeftUpLeg  -32.146 -17.8064 32.7479
LeftLeg  77.0779 -1.24674 -5.03365
LeftFoot  -36.9207 -7.22993 -32.0708
LeftToes  -2.75829e-010 5.07641e-011 -5.51782e-011
126
root  15.4818 28.5139 1.64095 9.45661 -77.2549 -19.3763
RightUpLeg  -22.2666 -3.59224 -33.2014
RightLeg  65.1004 -7.79402 -18.2757
RightFoot  -2.87299 -2.93105 37.65
RightToes  -5.28226e-011 1.30204e-014 -6.03759e-014
Spine  36.8234 4.9568 1.39794
Spine1  -2.57936 4.26427 4.91203
HEad  -32.1008 -10.2913 1.24876
LeftShoulder1  0.60927 0.850537 -16.4728
LeftArm  -14.4338 -5.87429 -43.907
LeftForeArm  -31.2225 -41.4563 -11.662
LeftHand  0.0430473 5.60658 27.772
RightShoulder  1.87339 2.82719 23.4651
RightArm  -26.4867 -43.3736 34.1278
RightForeArm  -40.8783 27.7941 7.74321
RightHand  -0.85811 -0.764837 -21.4056
LeftUpLeg  -29.9227 -19.3777 31.699
LeftLeg  75.5683 -0.640686 -1.59907
LeftFoot  -36.7695 -7.17031 -31.995
LeftToes  -2.75829e-010 5.07641e-011 -5.51782e-011
127
root  15.0668 29.7244 2.62843 27.5638 -80.0959 -37.5092
RightUpLeg  -22.4511 -0.516338 -31.2668
RightLeg  59.7371 -9.69672 -17.9392
RightFoot  9.28456 -6.00233 33.3104
RightToes  -5.28226e-011 1.30204e-014 -6.03759e-014
Spine  34.174 5.36091 -4.79899
Spine1  -3.2934 2.04849 9.79285
HEad  -26.8611 -2.13029 2.10719
LeftShoulder1  0.290544 2.23983 -16.0318
LeftArm  -20.0339 8.08909 -45.4221
LeftForeArm  -29.9874 -48.5518 -14.5343
LeftHand  0.130409 5.9821 25.2296
RightShoulder  1.5865 2.04205 22.4916
RightArm  -27.0185 -40.647 35.7213
RightForeArm  -35.5973 30.1029 8.18867
RightHand  -0.941303 -0.440544 -21.9585
LeftUpLeg  -24.9209 -16.0467 30.6344
LeftLeg  72.9283 -0.459163 -0.593139
LeftFoot  -35.5684 -6.52329 -30.7183
LeftToes  -2.75829e-010 5.07641e-011 -5.51782e-011
128
root  14.6729 31.2144 3.66285 72.5386 -81.9092 -82.2371
RightUpLeg  -26.7423 0.41495 -28.7858
RightLeg  53.7251 -6.525 -9.89977
RightFoot  24.2406 -6.59166 20.8772
RightToes  -5.28226e-011 1.30204e-014 -6.03759e-014
Spine  31.6202 4.39048 -8.04625
Spine1  -5.67124 0.530973 11.2173
HEad  -19.5344 9.57036 1.6057
LeftShoulder1  0.976813 -0.627345 -17.0536
LeftArm  -19.947 18.9269 -41.1095
LeftForeArm  -41.4671 -34.281 -9.80484
LeftHand  0.386912 7.09293 26.1755
RightShoulder  1.17668 0.677026 21.7629
RightArm  -20.5134 -34.4105 34.7682
RightForeArm  -36.6576 31.6905 8.65061
RightHand  -0.978281 -0.41401 -22.6874
LeftUpLeg  -17.6153 -9.43587 30.6938
LeftLeg  67.8059 -0.502209 -0.5454
LeftFoot  -34.8954 -5.97001 -29.0647
LeftToes  -2.75829e-010 5.07641e-011 -5.51782e-011
129
root  14.3016 32.9302 4.44488 125.913 -77.1877 -135.207
RightUpLeg  -34.2565 0.256058 -24.4695
RightLeg  48.7691 -1.37075 -1.954
RightFoot  32.5023 -4.56766 11.7205
RightToes  -5.28226e-011 1.30204e-014 -6.03759e-014
Spine  28.7547 1.9895 -13.5014
Spine1  -7.63416 -2.63606 13.3748
HEad  -12.7204 29.2682 1.67629
LeftShoulder1  1.71899 -3.60979 -17.4792
LeftArm  -15.9485 34.7503 -35.9477
LeftForeArm  -56.3262 -17.2806 -7.30521
LeftHand  0.711733 8.7728 24.4289
RightShoulder  0.48754 -1.4602 17.4113
RightArm  -10.9621 -21.7631 42.8388
RightForeArm  -38.8748 28.4425 7.85804
RightHand  -1.08044 -0.304895 -24.4164
LeftUpLeg  -8.15696 -0.621825 31.7877
LeftLeg  59.6171 -0.146838 0.276539
LeftFoot  -32.3366 -5.26221 -28.9114
LeftToes  -2.75829e-010 5.07641e-011 -5.51782e-011
130
root  13.9709 34.8398 4.91884 148.272 -68.598 -157.03
RightUpLeg  -41.9247 0.885074 -19.9939
RightLeg  43.345 -1.63396 -1.81873
RightFoot  32.3176 -3.82545 10.1258
RightToes  -5.28226e-011 1.30204e-014 -6.03759e-014
Spine  24.9323 -1.71658 -21.6422
Spine1  -7.15685 -7.52776 17.0459
HEad  -8.18023 49.1488 2.82484
LeftShoulder1  2.13006 -4.5575 -20.0067
LeftArm  -15.4483 52.6594 -33.1072
LeftForeArm  -58.7021 -8.8471 -8.27483
LeftHand  0.61809 8.85707 20.7626
RightShoulder  0.109834 -2.92248 13.3069
RightArm  -2.25288 -10.9107 57.4377
RightForeArm  -37.4963 26.7683 7.38415
RightHand  -1.25689 -0.00427697 -26.8443
LeftUpLeg  1.48395 7.99831 32.0424
LeftLeg  49.8241 0.700032 1.38806
LeftFoot  -25.295 -3.63826 -30.3496
LeftToes  -2.75829e-010 5.07641e-011 -5.51782e-011
131
root  13.7738 36.7384 5.21728 156.301 -63.2288 -165.165
RightUpLeg  -45.1773 1.64037 -18.3565
RightLeg  34.4587 -5.41477 -4.22167
RightFoot  29.081 -3.79017 10.8243
RightToes  -5.28226e-011 1.30204e-014 -6.03759e-014
Spine  22.2789 -5.63018 -27.5989
Spine1  -4.51917 -12.1274 18.2608
HEad  -9.39131 56.8864 0.74123
LeftShoulder1  2.20341 -4.39251 -21.5461
LeftArm  -17.4085 61.5547 -35.3313
LeftForeArm  -54.686 -1.33923 -6.80818
LeftHand  0.373588 7.88174 18.0728
RightShoulder  -0.117732 -4.12955 11.2653
RightArm  4.73613 -11.24 67.8358
RightForeArm  -33.211 32.6543 8.83137
RightHand  -1.18693 -0.39429 -27.2157
LeftUpLeg  8.49311 12.9753 30.8844
LeftLeg  40.4918 0.473163 0.892693
LeftFoot  -15.8912 -1.19347 -31.4867
LeftToes  -2.75829e-010 5.07641e-011 -5.51782e-011
